{"title":"Vil Ambu 2016 Movies DVDScr XviD New Clean Audio +Sample ~ ☻rDX☻","uid":13562645,"size":741985526,"categoryP":"video","categoryS":"movies","magnet":"?xt=urn:btih:10f99724dac201b204ac013acdf0cd5969c00253&amp;dn=Vil+Ambu+2016+Movies+DVDScr+XviD+New+Clean+Audio+%2BSample+%7E+%E2%98%BBrDX%E2%98%BB&amp;tr=udp%3A%2F%2Ftracker.leechers-paradise.org%3A6969&amp;tr=udp%3A%2F%2Fzer0day.ch%3A1337&amp;tr=udp%3A%2F%2Fopen.demonii.com%3A1337&amp;tr=udp%3A%2F%2Ftracker.coppersurfer.tk%3A6969&amp;tr=udp%3A%2F%2Fexodus.desync.com%3A6969","seeders":0,"leechers":1,"uploader":"basicssom","files":2,"time":1455599769,"description":"----------------------------------------------------------------\r\nVil Ambu 2016 Tamil Movies DVDScr XviD AAC New Source Clean Audio with Sample ~ ☻rDX☻\r\n\r\nSCREEN SHOTS &amp; POSTER:\r\n  \nhttp://mobileshosting.com/2016/2/VilAmbu/index.htm  \nhttp://mobileshosting.com/2016/2/VilAmbu/1.html  \nhttp://mobileshosting.com/2016/2/VilAmbu/2.html  \nhttp://mobileshosting.com/2016/2/VilAmbu/3.html  \nhttp://mobileshosting.com/2016/2/VilAmbu/4.html  \nhttp://mobileshosting.com/2016/2/VilAmbu/5.html  \nhttp://mobileshosting.com/2016/2/VilAmbu/6.html  \nhttp://mobileshosting.com/2016/2/VilAmbu/7.html  \nhttp://mobileshosting.com/2016/2/VilAmbu/8.html  \nhttp://mobileshosting.com/2016/2/VilAmbu/9.html  \nhttp://mobileshosting.com/2016/2/VilAmbu/10.html\r\n\r\nFormat                                   : Matroska\r\nFormat version                           : Version 4 / Version 2\r\nFile size                                : 703 MiB\r\nDuration                                 : 2h 14mn\r\nOverall bit rate                         : 731 Kbps\r\nMovie name                               : Vil Ambu 2016 Tamil Movies DVDScr XviD AAC New Source Clean Audio ☻rDX☻\r\n\r\nVideo\r\nID                                       : 1\r\nFormat                                   : AVC\r\nFormat/Info                              : Advanced Video Codec\r\nFormat profile                           :   \r\nFormat settings, CABAC                   : Yes\r\nFormat settings, ReFrames                : 4 frames\r\nCodec ID                                 : V_MPEG4/ISO/AVC\r\nDuration                                 : 2h 14mn\r\nBit rate                                 : 633 Kbps\r\nWidth                                    : 608 pixels\r\nHeight                                   : 256 pixels\r\nDisplay aspect ratio                     : 2.40:1\r\nFrame rate mode                          : Constant\r\nFrame rate                               : 25.000 fps\r\nColor space                              : YUV\r\nChroma subsampling                       : 4:2:0\r\nBit depth                                : 8 bits\r\nScan type                                : Progressive\r\nBits/(Pixel*Frame)                       : 0.163\r\nStream size                              : 596 MiB (85%)\r\nTitle                                    : ☻rDX☻\r\nWriting library                          : XviD\r\nLanguage                                 : Tamil\r\nDefault                                  : Yes\r\nForced                                   : Yes\r\n\r\nAudio\r\nID                                       : 2\r\nFormat                                   : MPEG Audio\r\nFormat version                           : Version 1\r\nFormat profile                           : Layer 3\r\nMode                                     : Joint stereo\r\nMode extension                           : MS Stereo\r\nCodec ID                                 : A_MPEG/L3\r\nCodec ID/Hint                            : MP3\r\nDuration                                 : 2h 14mn\r\nBit rate mode                            : Constant\r\nBit rate                                 : 96.0 Kbps\r\nChannel(s)                               : 2 channels\r\nSampling rate                            : 48.0 KHz\r\nCompression mode                         : Lossy\r\nStream size                              : 92.3 MiB (13%)\r\nTitle                                    : ☻rDX☻\r\nWriting library                          : LAME3.98r\r\nEncoding settings                        : -m j -V 4 -q 3 -lowpass 15.1 -b 96\r\nLanguage                                 : Tamil\r\nDefault                                  : Yes\r\nForced                                   : Yes\r\n\r\nIMDB                                     \r\nna","torrent":{"xt":"urn:btih:10f99724dac201b204ac013acdf0cd5969c00253","amp;dn":"Vil+Ambu+2016+Movies+DVDScr+XviD+New+Clean+Audio+%2BSample+%7E+%E2%98%BBrDX%E2%98%BB","amp;tr":["udp%3A%2F%2Ftracker.leechers-paradise.org%3A6969","udp%3A%2F%2Fzer0day.ch%3A1337","udp%3A%2F%2Fopen.demonii.com%3A1337","udp%3A%2F%2Ftracker.coppersurfer.tk%3A6969","udp%3A%2F%2Fexodus.desync.com%3A6969"],"infoHash":"10f99724dac201b204ac013acdf0cd5969c00253","infoHashBuffer":{"type":"Buffer","data":[16,249,151,36,218,194,1,178,4,172,1,58,205,240,205,89,105,192,2,83]},"announce":[],"urlList":[]}}